<mxfile host="app.diagrams.net" modified="2023-05-24T09:09:55.116Z" agent="Mozilla/5.0 (Windows NT 10.0; Win64; x64) AppleWebKit/537.36 (KHTML, like Gecko) Chrome/113.0.0.0 Safari/537.36" version="21.1.5" etag="sc-ztsGZeUczPZQlETjr" type="github">
  <diagram name="第 1 页" id="JtiG0pAZj9qbWhUHI57T">
    <mxGraphModel>
      <root>
        <mxCell id="0" />
        <mxCell id="1" parent="0" />
      </root>
    </mxGraphModel>
  </diagram>
</mxfile>
